<svg xmlns="http://www.w3.org/2000/svg" viewBox="0 0 64 64" width="64" height="64">
  <rect width="64" height="64" rx="14" fill="#1b1d23" />
  <g fill="#cdd2c4">
    <path d="M32 11a7.5 7.5 0 0 0-4.4 13.6c-2.9 1.7-4.9 4.7-5.4 8.1h19.6c-.5-3.4-2.5-6.4-5.4-8.1A7.5 7.5 0 0 0 32 11z" />
    <path d="M23 31h18c.4 3.2 2 6 4 8.6-2.4 3.5-3.8 7.6-4 12.4H25c-.2-4.8-1.6-8.9-4-12.4 2-2.6 3.6-5.4 4-8.6z" />
    <path d="M22 49h20a2.6 2.6 0 0 1 2.6 2.6V54a1 1 0 0 1-1 1H20.4a1 1 0 0 1-1-1v-2.4A2.6 2.6 0 0 1 22 49z" />
  </g>
</svg>
